<svg xmlns:svg="http://www.w3.org/2000/svg" xmlns="http://www.w3.org/2000/svg" version="1.1" width="580" height="360">
  <style type="text/css">
    .st0{fill:#FFFFFF;}
    .st1{fill:#646464;}
    .st2{fill:#9E9E9F;}
    .st3{fill:#C8C8C8;}
    .st4{fill:none;stroke:#222;stroke-width:0.35;stroke-linecap:round;stroke-linejoin:round;stroke-miterlimit:2;}
    .st5{fill:none;stroke:#222;stroke-width:0.35;stroke-linecap:round;stroke-linejoin:round;stroke-miterlimit:10;}
    .st6{fill:none;stroke:#222;stroke-width:0.35;stroke-linecap:round;stroke-linejoin:round;}
    .st7{fill:#222}
  </style>
  <path class="st1 button button-r" d="M376.72,15.45l0.03-1.69c0.03-1.62,1.37-2.89,3-2.89h19.72c25.75,0.38,49.09,13.76,62.43,35.76
    c0.8,1.3,1.56,2.62,2.28,3.96c0.82,1.56,1.59,3.15,2.3,4.77c0.48,1.09,0.12,2.86-1.72,2.86l-2.11,0.01L376.72,15.45z"/>
  <path class="st0" d="M468.07,85.2c0-39.27-32.12-69.73-71.39-69.73h-35h0c-1.83,0-3.31,1.49-3.31,3.32v329.63
    c0,0.92,0.74,1.66,1.66,1.66h38.31c38.51,0,69.73-31.21,69.73-69.72V85.2c0-8.33-1.36-16.06-4.22-23.88"/>

  <g id="action-buttons-group">
    <path class="st1 button button-a" d="M447.82,99.77c0-6.68-5.41-12.08-12.09-12.08c-6.67,0-12.08,5.41-12.08,12.08c0,6.68,5.41,12.08,12.08,12.08
  C442.41,111.85,447.82,106.44,447.82,99.77z"/>
    <path class="st1 button button-x" d="M409.5,62.78c-6.68,0-12.09,5.41-12.09,12.08c0,6.68,5.41,12.09,12.09,12.09c6.67,0,12.08-5.41,12.08-12.09
      C421.59,68.19,416.17,62.78,409.5,62.78z"/>
    <path class="st1 button button-b" d="M409.5,112.58c-6.68,0-12.09,5.41-12.09,12.09c0,6.67,5.41,12.08,12.09,12.08c6.67,0,12.08-5.41,12.08-12.08
      C421.59,117.99,416.17,112.58,409.5,112.58z"/>
    <circle class="st1 button button-y" cx="383.27" cy="99.77" r="12.08"/>
  </g>

  <path class="st1 button button-home" d="M401.19,255.49c0,5.5-4.46,9.96-9.96,9.96c-5.5,0-9.97-4.46-9.97-9.96c0-5.5,4.46-9.97,9.97-9.97
    C396.74,245.53,401.19,249.99,401.19,255.49z"/>
  <path class="st1 button button-l" d="M201.29,15.45l-0.03-1.68c-0.03-1.62-1.37-2.9-3-2.9h-19.72c-25.75,0.39-49.08,13.76-62.43,35.77
    c-0.8,1.3-1.56,2.61-2.28,3.96c-0.82,1.56-1.59,3.15-2.3,4.77c-0.48,1.09-0.12,2.86,1.72,2.86l2.11,0.01L201.29,15.45z"/>
  <path class="st0" d="M109.94,85.2c0-39.26,32.12-69.72,71.39-69.72h35h0c1.83,0,3.31,1.49,3.31,3.32v329.63
    c0,0.92-0.74,1.66-1.66,1.66h-38.31c-38.51,0-69.73-31.22-69.73-69.73V85.2c0-8.33,1.36-16.05,4.22-23.87"/>
  <path class="st1 button button-capture" d="M176.7,247.74c0-1.28,1.04-2.32,2.32-2.32h15.5c1.28,0,2.32,1.04,2.32,2.32v15.5c0,1.28-1.04,2.32-2.32,2.32
    h-15.5c-1.29,0-2.32-1.04-2.32-2.32V247.74z"/>

  <g id="nav-buttons-group">
    <path class="st1 button button-left" d="M130.19,192.74c0-6.67,5.41-12.08,12.08-12.08c6.68,0,12.09,5.41,12.09,12.08c0,6.68-5.41,12.09-12.09,12.09
    C135.61,204.83,130.19,199.41,130.19,192.74z"/>
    <path class="st1 button button-up" d="M168.51,155.75c6.68,0,12.08,5.41,12.08,12.09c0,6.67-5.41,12.08-12.08,12.08c-6.68,0-12.08-5.41-12.08-12.08
      C156.42,161.16,161.83,155.75,168.51,155.75z"/>
    <circle class="st1 button button-down" cx="168.51" cy="217.64" r="12.08"/>
    <path class="st1 button button-right" d="M206.82,192.74c0,6.68-5.41,12.09-12.08,12.09s-12.09-5.41-12.09-12.09c0-6.67,5.41-12.08,12.09-12.08
      S206.82,186.07,206.82,192.74z"/>
  </g>

  <path class="st7" d="M397.57,253.98c-2.02-1.72-4.04-3.44-6.07-5.16c-0.19-0.16-0.34-0.16-0.53,0c-2.02,1.72-4.05,3.44-6.08,5.16
    c-0.36,0.31-0.21,0.71,0.27,0.71c0.27,0,0.52,0,0.79,0c0.28,0,0.41,0.12,0.41,0.41c0,1.76,0,3.52,0,5.28c0,0.29,0.11,0.41,0.41,0.41
    c2.98,0,5.96,0,8.95,0c0.29,0,0.41-0.12,0.41-0.41c0-1.76,0-3.52,0-5.28c0-0.29,0.12-0.41,0.4-0.41c0.27,0,0.53,0,0.79,0
    C397.78,254.69,397.94,254.29,397.57,253.98z M393.27,257.95c0,0.29-0.12,0.41-0.41,0.41c-1.08,0-2.16,0-3.25,0
    c-0.29,0-0.41-0.12-0.41-0.41c0-0.81,0-1.62,0-2.44c0-0.29,0.12-0.41,0.41-0.41c1.08,0,2.17,0,3.25,0c0.28,0,0.39,0.11,0.41,0.39
    C393.27,256.31,393.27,257.13,393.27,257.95z"/>
  <g>
    <g>
      <path class="st7" d="M193.04,196.65c-0.47,0.27-0.86,0.05-0.86-0.5v-6.81c0-0.55,0.39-0.77,0.86-0.5l5.9,3.41c0.47,0.27,0.47,0.72,0,0.99
        L193.04,196.65z"/>
    </g>
    <g>
      <path class="st7" d="M143.98,188.84c0.47-0.27,0.86-0.05,0.86,0.5v6.81c0,0.55-0.39,0.77-0.86,0.5l-5.9-3.4c-0.48-0.27-0.48-0.72,0-1
        L143.98,188.84z"/>
    </g>
    <g>
      <path class="st7" d="M172.41,169.54c0.27,0.47,0.05,0.86-0.49,0.86h-6.81c-0.54,0-0.77-0.39-0.5-0.86l3.4-5.9c0.27-0.48,0.72-0.48,1,0
        L172.41,169.54z"/>
    </g>
    <g>
      <path class="st7" d="M164.6,215.94c-0.27-0.47-0.05-0.86,0.5-0.86h6.81c0.54,0,0.77,0.39,0.49,0.86l-3.4,5.9c-0.27,0.48-0.72,0.48-1,0
        L164.6,215.94z"/>
    </g>
  </g>
  <g>
    <g>
      <path class="st0" d="M409.51,73.63l2.31-3.63h1.6l-3.11,4.61l3.54,5.13h-1.73l-2.67-4.1l-2.62,4.1h-1.68l3.49-5.16l-3.14-4.58
        h1.67L409.51,73.63z"/>
    </g>
    <g>
      <path class="st0" d="M406.39,119.81h3.37c1.47,0,3.07,0.61,3.07,2.48c0,1.08-0.7,1.85-1.71,2.13v0.03
        c1.25,0.15,2.17,1.01,2.17,2.38c0,1.88-1.63,2.77-3.68,2.77h-3.22V119.81z M407.75,123.95h1.78c1.05,0,1.91-0.46,1.91-1.52
        c0-1.05-0.84-1.47-2.14-1.47h-1.56V123.95z M407.75,128.43h1.71c1.16,0,2.43-0.36,2.43-1.68c0-1.14-0.81-1.64-2.31-1.64h-1.83
        V128.43z"/>
    </g>
    <g>
      <path class="st0" d="M383.96,104.66h-1.38v-4.23l-3.66-5.55h1.69l2.71,4.42l2.72-4.42h1.59l-3.66,5.55V104.66z"/>
    </g>
    <g>
      <path class="st0" d="M432.39,104.48h-1.52l4.23-9.75h1.24l4.19,9.75h-1.54l-0.99-2.4h-4.63L432.39,104.48z M433.84,100.89h3.65
        l-1.82-4.58L433.84,100.89z"/>
    </g>
  </g>
  <path class="st1 button button-minus" d="M193.11,50.21c0,0.47,0.2,0.66,0.67,0.66h16.2c0.47,0,0.66-0.19,0.66-0.66v-3.79c0-0.47-0.19-0.66-0.66-0.66
    h-16.2c-0.47,0-0.67,0.2-0.67,0.66V50.21z"/>
  <path class="st1 button button-plus" d="M368.03,45.75c-0.47,0-0.66,0.2-0.66,0.66v3.79c0,0.47,0.2,0.66,0.66,0.66h4.88c0.37,0,0.66,0.3,0.66,0.67v4.88
    c0,0.47,0.19,0.67,0.66,0.67h3.78c0.47,0,0.67-0.2,0.67-0.67v-4.88c0-0.37,0.29-0.67,0.66-0.67h4.89c0.47,0,0.66-0.19,0.66-0.66
    v-3.79c0-0.47-0.19-0.66-0.66-0.66h-4.89c-0.37,0-0.66-0.3-0.66-0.66V40.2c0-0.47-0.2-0.66-0.67-0.66h-3.78
    c-0.47,0-0.66,0.19-0.66,0.66v4.88c0,0.37-0.3,0.66-0.66,0.66L368.03,45.75z"/>
  <path class="st6" d="M468.07,85.2c0-39.27-32.12-69.73-71.39-69.73h-35h0c-1.83,0-3.31,1.49-3.31,3.32v329.63
    c0,0.92,0.74,1.66,1.66,1.66h38.31c38.51,0,69.73-31.21,69.73-69.72V85.2c0-8.33-1.36-16.06-4.22-23.88"/>
  <path class="st6" d="M376.72,15.45l0.03-1.69c0.03-1.62,1.37-2.89,3-2.89h19.72c25.75,0.38,49.09,13.76,62.43,35.76
    c0.8,1.3,1.56,2.62,2.28,3.96c0.82,1.56,1.59,3.15,2.3,4.77c0.48,1.09,0.12,2.86-1.72,2.86l-2.11,0.01"/>
  <path class="st6" d="M109.94,85.2c0-39.26,32.12-69.72,71.39-69.72h35h0c1.83,0,3.31,1.49,3.31,3.32v329.63
    c0,0.92-0.74,1.66-1.66,1.66h-38.31c-38.51,0-69.73-31.22-69.73-69.73V85.2c0-8.33,1.36-16.05,4.22-23.87"/>
  <path class="st6" d="M201.29,15.45l-0.03-1.68c-0.03-1.62-1.37-2.9-3-2.9h-19.72c-25.75,0.39-49.08,13.76-62.43,35.77
    c-0.8,1.3-1.56,2.61-2.28,3.96c-0.82,1.56-1.59,3.15-2.3,4.77c-0.48,1.09-0.12,2.86,1.72,2.86l2.11,0.01"/>
  <path class="st6" d="M382.17,259.61c0.07,0.16,0.14,0.31,0.22,0.46"/>
  <path class="st5 button button-capture" d="M176.7,247.74c0-1.28,1.04-2.32,2.32-2.32h15.5c1.28,0,2.32,1.04,2.32,2.32v15.5c0,1.28-1.04,2.32-2.32,2.32
    h-15.5c-1.29,0-2.32-1.04-2.32-2.32V247.74z"/>
  <path class="st6" d="M186.77,248.85c-3.66,0-6.64,2.97-6.64,6.64c0,3.66,2.97,6.63,6.64,6.63c3.67,0,6.64-2.97,6.64-6.63
    C193.41,251.83,190.44,248.85,186.77,248.85z"/>
  <path class="st6" d="M130.19,192.74c0-6.67,5.41-12.08,12.08-12.08c6.68,0,12.09,5.41,12.09,12.08c0,6.68-5.41,12.09-12.09,12.09
    C135.61,204.83,130.19,199.41,130.19,192.74z"/>
  <path class="st6" d="M168.51,155.75c6.68,0,12.08,5.41,12.08,12.09c0,6.67-5.41,12.08-12.08,12.08c-6.68,0-12.08-5.41-12.08-12.08
    C156.42,161.16,161.83,155.75,168.51,155.75z"/>
  <circle class="st6" cx="168.51" cy="217.64" r="12.08"/>
  <path class="st6" d="M206.82,192.74c0,6.68-5.41,12.09-12.08,12.09s-12.09-5.41-12.09-12.09c0-6.67,5.41-12.08,12.09-12.08
    S206.82,186.07,206.82,192.74z"/>
  <path class="st6" d="M194.28,99.77c0,14.23-11.53,25.77-25.77,25.77c-14.23,0-25.76-11.53-25.76-25.77
    c0-14.23,11.53-25.77,25.76-25.77C182.74,74,194.28,85.54,194.28,99.77z"/>
  <path class="st6" d="M447.82,99.77c0-6.68-5.41-12.08-12.09-12.08c-6.67,0-12.08,5.41-12.08,12.08c0,6.68,5.41,12.08,12.08,12.08
    C442.41,111.85,447.82,106.44,447.82,99.77z"/>
  <path class="st6" d="M409.5,62.78c-6.68,0-12.09,5.41-12.09,12.08c0,6.68,5.41,12.09,12.09,12.09c6.67,0,12.08-5.41,12.08-12.09
    C421.59,68.19,416.17,62.78,409.5,62.78z"/>
  <path class="st6" d="M409.5,112.58c-6.68,0-12.09,5.41-12.09,12.09c0,6.67,5.41,12.08,12.09,12.08c6.67,0,12.08-5.41,12.08-12.08
    C421.59,117.99,416.17,112.58,409.5,112.58z"/>
  <circle class="st6" cx="383.27" cy="99.77" r="12.08"/>
  <path class="st6" d="M401.19,255.49c0,5.5-4.46,9.96-9.96,9.96c-5.5,0-9.97-4.46-9.97-9.96c0-5.5,4.46-9.97,9.97-9.97
    C396.74,245.53,401.19,249.99,401.19,255.49z"/>
  <path class="st6" d="M404.52,255.49c0,7.33-5.95,13.28-13.28,13.28c-7.34,0-13.29-5.95-13.29-13.28c0-7.34,5.95-13.29,13.29-13.29
    C398.57,242.2,404.52,248.15,404.52,255.49z"/>

  <g class="axis axis-l-container">
    <path class="st1 button button-l3" d="M194.28,99.77c0,14.23-11.53,25.77-25.77,25.77c-14.23,0-25.76-11.53-25.76-25.77
    c0-14.23,11.53-25.77,25.76-25.77C182.74,74,194.28,85.54,194.28,99.77z"/>
    <path d="M167.85,81.79c0-0.45,0-0.89,0-1.34l0-4.17c0-0.44,0.33-0.4,0.66-0.4c0.33,0,0.67-0.05,0.67,0.4l0,4.17
    c0,0.45,0,0.89,0,1.34"/>
    <path d="M150.54,100.44c-0.45,0-0.9,0-1.35,0h-4.16c-0.45,0-0.4-0.33-0.4-0.66c0-0.33-0.05-0.67,0.4-0.67l4.16,0
      c0.45,0,0.9,0,1.35,0"/>
    <path d="M169.18,117.75c0,0.45,0,0.9,0,1.35v4.16c0,0.44-0.34,0.4-0.66,0.4c-0.33,0-0.67,0.05-0.67-0.4l-0.01-4.16
      c0-0.45,0-0.9,0-1.35"/>
    <path d="M186.5,99.11c0.45,0,0.9,0,1.35,0l4.16,0c0.45,0,0.4,0.33,0.4,0.66c0,0.33,0.05,0.67-0.4,0.67l-4.16,0c-0.45,0-0.9,0-1.35,0
      "/>
    <path class="st6" d="M186.45,99.77c0,9.91-8.03,17.93-17.93,17.93c-9.91,0-17.94-8.03-17.94-17.93c0-9.91,8.03-17.93,17.94-17.93
      C178.42,81.84,186.45,89.87,186.45,99.77z"/>
  </g>

  <g class="axis axis-r-container">
    <path class="st1 button button-r3" d="M435.27,192.77c0,14.23-11.53,25.77-25.77,25.77c-14.23,0-25.76-11.54-25.76-25.77
    c0-14.23,11.53-25.77,25.76-25.77C423.74,167,435.27,178.54,435.27,192.77z"/>
    <path class="st6" d="M435.27,192.77c0,14.23-11.53,25.77-25.77,25.77c-14.23,0-25.76-11.54-25.76-25.77
    c0-14.23,11.53-25.77,25.76-25.77C423.74,167,435.27,178.54,435.27,192.77z"/>
    <path class="st7" d="M408.85,174.79c0-0.45,0-0.89,0-1.34l0-4.17c0-0.44,0.33-0.39,0.66-0.39c0.33,0,0.67-0.05,0.67,0.39l0,4.17
      c0,0.45,0,0.89,0,1.34"/>
    <path class="st7" d="M391.54,193.44c-0.45,0-0.9,0-1.35,0h-4.16c-0.45,0-0.4-0.33-0.4-0.66c0-0.33-0.05-0.67,0.4-0.67h4.16c0.45,0,0.9,0,1.35,0"
      />
    <path class="st7" d="M410.18,210.75c0,0.45,0,0.9,0,1.35v4.16c0,0.44-0.34,0.39-0.66,0.39c-0.33,0.01-0.67,0.05-0.67-0.39l-0.01-4.16
      c0-0.46,0-0.91,0-1.35"/>
    <path class="st7" d="M427.49,192.11c0.45,0,0.9,0,1.35,0H433c0.45,0,0.4,0.34,0.4,0.66c0,0.33,0.05,0.67-0.4,0.67l-4.16,0.01
      c-0.45-0.01-0.9-0.01-1.35-0.01"/>
    <path class="st6" d="M427.44,192.77c0,9.91-8.03,17.94-17.93,17.94c-9.91,0-17.94-8.03-17.94-17.94c0-9.9,8.03-17.93,17.94-17.93
      C419.41,174.84,427.44,182.87,427.44,192.77z"/>
  </g>

  <path class="st5" d="M193.11,50.21c0,0.47,0.2,0.66,0.67,0.66h16.2c0.47,0,0.66-0.19,0.66-0.66v-3.79c0-0.47-0.19-0.66-0.66-0.66
    h-16.2c-0.47,0-0.67,0.2-0.67,0.66V50.21z"/>
  <path class="st5" d="M368.03,45.75c-0.47,0-0.66,0.2-0.66,0.66v3.79c0,0.47,0.2,0.66,0.66,0.66h4.88c0.37,0,0.66,0.3,0.66,0.67v4.88
    c0,0.47,0.19,0.67,0.66,0.67h3.78c0.47,0,0.67-0.2,0.67-0.67v-4.88c0-0.37,0.29-0.67,0.66-0.67h4.89c0.47,0,0.66-0.19,0.66-0.66
    v-3.79c0-0.47-0.19-0.66-0.66-0.66h-4.89c-0.37,0-0.66-0.3-0.66-0.66V40.2c0-0.47-0.2-0.66-0.67-0.66h-3.78
    c-0.47,0-0.66,0.19-0.66,0.66v4.88c0,0.37-0.3,0.66-0.66,0.66L368.03,45.75z"/>
</svg>
